<svg xmlns="http://www.w3.org/2000/svg" width="180" height="180" viewBox="0 0 180 180"><rect x="5" y="5" width="20" height="20" fill="#0078D4"/><rect x="35" y="5" width="20" height="20" fill="#0078D4"/><rect x="65" y="5" width="20" height="20" fill="#0078D4"/><rect x="95" y="5" width="20" height="20" fill="#0078D4"/><rect x="125" y="5" width="20" height="20" fill="#0078D4"/><rect x="155" y="5" width="20" height="20" fill="#0078D4"/><rect x="5" y="35" width="20" height="20" fill="#0078D4"/><rect x="35" y="35" width="20" height="20" fill="#0078D4"/><rect x="65" y="35" width="20" height="20" fill="#0078D4"/><rect x="95" y="35" width="20" height="20" fill="#0078D4"/><rect x="125" y="35" width="20" height="20" fill="#0078D4"/><rect x="155" y="35" width="20" height="20" fill="#0078D4"/><rect x="5" y="65" width="20" height="20" fill="#0078D4"/><rect x="35" y="65" width="20" height="20" fill="#0078D4"/><rect x="65" y="65" width="20" height="20" fill="#0078D4"/><rect x="95" y="65" width="20" height="20" fill="#0078D4"/><rect x="125" y="65" width="20" height="20" fill="#0078D4"/><rect x="155" y="65" width="20" height="20" fill="#0078D4"/><rect x="5" y="95" width="20" height="20" fill="#0078D4"/><rect x="35" y="95" width="20" height="20" fill="#0078D4"/><rect x="65" y="95" width="20" height="20" fill="#0078D4"/><rect x="95" y="95" width="20" height="20" fill="#0078D4"/><rect x="125" y="95" width="20" height="20" fill="#0078D4"/><rect x="155" y="95" width="20" height="20" fill="#0078D4"/><rect x="5" y="125" width="20" height="20" fill="#0078D4"/><rect x="35" y="125" width="20" height="20" fill="#0078D4"/><rect x="65" y="125" width="20" height="20" fill="#0078D4"/><rect x="95" y="125" width="20" height="20" fill="#0078D4"/><rect x="125" y="125" width="20" height="20" fill="#0078D4"/><rect x="155" y="125" width="20" height="20" fill="#0078D4"/></svg>