<svg xmlns="http://www.w3.org/2000/svg" width="100" height="100" viewBox="0 0 100 100"><circle cx="5" cy="5" r="3" fill="#5C2D91"/><circle cx="15" cy="5" r="3" fill="#5C2D91"/><circle cx="25" cy="5" r="3" fill="#5C2D91"/><circle cx="35" cy="5" r="3" fill="#5C2D91"/><circle cx="45" cy="5" r="3" fill="#5C2D91"/><circle cx="55" cy="5" r="3" fill="#5C2D91"/><circle cx="65" cy="5" r="3" fill="#5C2D91"/><circle cx="75" cy="5" r="3" fill="#5C2D91"/><circle cx="85" cy="5" r="3" fill="#5C2D91"/><circle cx="95" cy="5" r="3" fill="#5C2D91"/><circle cx="5" cy="15" r="3" fill="#5C2D91"/><circle cx="15" cy="15" r="3" fill="#5C2D91"/><circle cx="25" cy="15" r="3" fill="#5C2D91"/><circle cx="35" cy="15" r="3" fill="#5C2D91"/><circle cx="45" cy="15" r="3" fill="#5C2D91"/><circle cx="55" cy="15" r="3" fill="#5C2D91"/><circle cx="65" cy="15" r="3" fill="#5C2D91"/><circle cx="75" cy="15" r="3" fill="#5C2D91"/><circle cx="85" cy="15" r="3" fill="#5C2D91"/><circle cx="95" cy="15" r="3" fill="#5C2D91"/><circle cx="5" cy="25" r="3" fill="#5C2D91"/><circle cx="15" cy="25" r="3" fill="#5C2D91"/><circle cx="25" cy="25" r="3" fill="#5C2D91"/><circle cx="35" cy="25" r="3" fill="#5C2D91"/><circle cx="45" cy="25" r="3" fill="#5C2D91"/><circle cx="55" cy="25" r="3" fill="#5C2D91"/><circle cx="65" cy="25" r="3" fill="#5C2D91"/><circle cx="75" cy="25" r="3" fill="#5C2D91"/><circle cx="85" cy="25" r="3" fill="#5C2D91"/><circle cx="95" cy="25" r="3" fill="#5C2D91"/><circle cx="5" cy="35" r="3" fill="#5C2D91"/><circle cx="15" cy="35" r="3" fill="#5C2D91"/><circle cx="25" cy="35" r="3" fill="#5C2D91"/><circle cx="35" cy="35" r="3" fill="#5C2D91"/><circle cx="45" cy="35" r="3" fill="#5C2D91"/><circle cx="55" cy="35" r="3" fill="#5C2D91"/><circle cx="65" cy="35" r="3" fill="#5C2D91"/><circle cx="75" cy="35" r="3" fill="#5C2D91"/><circle cx="85" cy="35" r="3" fill="#5C2D91"/><circle cx="95" cy="35" r="3" fill="#5C2D91"/><circle cx="5" cy="45" r="3" fill="#5C2D91"/><circle cx="15" cy="45" r="3" fill="#5C2D91"/><circle cx="25" cy="45" r="3" fill="#5C2D91"/><circle cx="35" cy="45" r="3" fill="#5C2D91"/><circle cx="45" cy="45" r="3" fill="#5C2D91"/><circle cx="55" cy="45" r="3" fill="#5C2D91"/><circle cx="65" cy="45" r="3" fill="#5C2D91"/><circle cx="75" cy="45" r="3" fill="#5C2D91"/><circle cx="85" cy="45" r="3" fill="#5C2D91"/><circle cx="95" cy="45" r="3" fill="#5C2D91"/></svg>