<svg xmlns="http://www.w3.org/2000/svg" width="48" height="48" viewBox="0 0 24 24"><path d="M19.14 12.94a7.49 7.49 0 0 0 0-1.88l2.03-1.58a.5.5 0 0 0 .11-.63l-1.92-3.32a.5.5 0 0 0-.6-.22l-2.39.96a7.34 7.34 0 0 0-1.62-.94l-.36-2.54a.5.5 0 0 0-.49-.42h-3.84a.5.5 0 0 0-.49.42l-.36 2.54a7.34 7.34 0 0 0-1.62.94l-2.39-.96a.5.5 0 0 0-.6.22L3.72 8.85a.5.5 0 0 0 .11.63l2.03 1.58a7.49 7.49 0 0 0 0 1.88l-2.03 1.58a.5.5 0 0 0-.11.63l1.92 3.32a.5.5 0 0 0 .6.22l2.39-.96c.5.39 1.04.71 1.62.94l.36 2.54c.04.24.24.42.49.42h3.84c.25 0 .45-.18.49-.42l.36-2.54c.58-.23 1.12-.55 1.62-.94l2.39.96c.23.09.49 0 .6-.22l1.92-3.32a.5.5 0 0 0-.11-.63l-2.03-1.58zM12 15.5A3.5 3.5 0 1 1 12 8.5a3.5 3.5 0 0 1 0 7z" fill="#5C2D91"/></svg>
